<svg xmlns="http://www.w3.org/2000/svg" width="156" height="156" viewBox="0 0 156 156"><g fill="none" fill-rule="evenodd"><path fill="#69B3E7" d="M156 78c0-43.078-34.922-78-78-78S0 34.922 0 78s34.922 78 78 78 78-34.922 78-78"/><path fill="#478EBA" d="M113.213 35.545h-12.37L97.11 31l-5.232 8.247-3.59-3.702H63.543L59.959 31v14.441l-8.964-9.894H38.656L36 54.46l7.601 5.352-7.595.003.774 55.958S81.763 156.133 83.626 156C124.076 153.105 156 119.28 156 77.976c0-1.29-.038-2.572-.106-3.846-.053-1-42.68-38.585-42.68-38.585"/><path fill="#478EBA" d="M125.409 102 104 121.978 124.68 141A78.9 78.9 0 0 0 144 119.617z"/><path fill="#ECEEF0" d="M98.53 70.64h-7.69c-.97 0-1.759.766-1.759 1.754v7.86a1.75 1.75 0 0 0 1.76 1.756h7.691c.969 0 1.763-.769 1.763-1.756V72.4c0-.993-.792-1.756-1.765-1.756v-.002zm-18.685 0h-7.692c-.97 0-1.763.766-1.763 1.754v7.86a1.75 1.75 0 0 0 1.763 1.756h7.692c.969 0 1.759-.769 1.759-1.756V72.4c0-.993-.79-1.756-1.76-1.756v-.002zm-18.653 0h-7.728c-.971 0-1.76.766-1.76 1.754v7.86c0 .987.791 1.756 1.76 1.756h7.728a1.74 1.74 0 0 0 1.725-1.756V72.4c0-.993-.79-1.756-1.725-1.756v-.002zM98.53 89.619h-7.69c-.97 0-1.759.803-1.759 1.79v7.86c0 .95.793 1.758 1.76 1.758h7.691c.969 0 1.763-.808 1.763-1.758v-7.86c0-.987-.792-1.79-1.765-1.79m-18.685 0h-7.692c-.97 0-1.763.803-1.763 1.79v7.86c0 .95.792 1.758 1.763 1.758h7.692c.969 0 1.759-.808 1.759-1.758v-7.86c0-.987-.79-1.79-1.76-1.79zm-18.653 0h-7.728c-.971 0-1.76.803-1.76 1.79v7.86c0 .95.791 1.758 1.76 1.758h7.728c.937 0 1.725-.808 1.725-1.758v-7.86c0-.987-.79-1.79-1.725-1.79M115.998 60v54.332c0 1.498-1.185 2.668-2.624 2.668H38.66a2.646 2.646 0 0 1-2.66-2.668V60h80z"/><path fill="#572C5F" d="M51.025 36.006v10.819c0 3.508 2.804 6.396 6.288 6.396 3.486 0 6.29-2.888 6.29-6.396V36h24.796v10.818c0 3.51 2.804 6.397 6.292 6.397 3.486 0 6.29-2.887 6.29-6.397V36h12.398c1.434 0 2.621 1.206 2.621 2.707V55H36V38.71c0-1.502 1.185-2.708 2.662-2.708h12.365z"/><path fill="#024" d="M92 32.761c0-3.681 5-3.681 5 0V46.27c0 1.492-1.13 2.73-2.498 2.73C93.132 49 92 47.762 92 46.27V32.76zm-37-.053c0-3.61 5-3.61 5 0V46.26c0 1.498-1.139 2.74-2.5 2.74-1.367 0-2.5-1.242-2.5-2.74z"/><path fill="#663772" d="M63.6 36v10.825c0 3.51-2.804 6.394-6.287 6.394-3.486 0-6.29-2.884-6.29-6.394V36.006l.002-.004H38.661c-1.476 0-2.661 1.206-2.661 2.707V55h40V36z"/><path fill="#FFF" d="M62.913 80.256c0 .987-.788 1.755-1.725 1.755h-7.727c-.969 0-1.76-.768-1.76-1.755v-7.86c0-.989.789-1.753 1.76-1.753h7.727v.002c.933 0 1.725.762 1.725 1.755zm0 19.013c0 .95-.788 1.757-1.725 1.757h-7.727c-.969 0-1.76-.807-1.76-1.757v-7.86c0-.987.789-1.792 1.76-1.792h7.727c.933 0 1.725.805 1.725 1.792zM76 101.026h-3.849c-.97 0-1.765-.807-1.765-1.757v-7.86c0-.987.794-1.792 1.765-1.792H76v-7.606h-3.849c-.97 0-1.765-.768-1.765-1.755v-7.86c0-.989.794-1.753 1.765-1.753H76V60H36v54.332A2.644 2.644 0 0 0 38.657 117H76z"/><path fill="#024" d="M101 113.501c0 8.016 6.496 14.499 14.5 14.499s14.5-6.483 14.5-14.499C130 105.497 123.504 99 115.5 99s-14.5 6.497-14.5 14.501m14.032 2.416c-.414 0-.74-.355-.74-.776v-8.116c0-.434.326-.774.74-.774.398 0 .739.34.739.774v7.341h5.031c.398 0 .739.341.739.775 0 .42-.34.776-.739.776z"/><path fill="#FFF" d="M115.715 116c-.4 0-.715-.368-.715-.801V106.8c0-.449.315-.801.715-.801.384 0 .713.352.713.801v7.597h4.857c.386 0 .715.352.715.8 0 .434-.329.802-.715.802h-5.57z"/></g></svg>