<svg xmlns="http://www.w3.org/2000/svg" width="156" height="156" viewBox="0 0 156 156"><g fill="none" fill-rule="evenodd"><path fill="#D8D9EB" d="M156 78.001C156 34.923 121.078 0 78 0S0 34.923 0 78.001C0 121.077 34.922 156 78 156s78-34.923 78-77.999"/><path fill="#0033A0" d="M124.208 44.465c-.933-.268-1.907-.465-2.93-.465H33.726c-.587 0-1.151.085-1.713.178a10.67 10.67 0 0 0-5.607 2.758C24.323 48.893 23 51.656 23 54.74v52.529c0 .304.063.594.09.896.461 5.487 5.025 9.835 10.636 9.835h87.552c1.591 0 3.087-.37 4.456-1 3.684-1.695 6.266-5.41 6.266-9.731v-52.53c0-4.895-3.308-8.987-7.792-10.274"/><path fill="#024" d="M125.137 44.465c-.942-.268-1.925-.465-2.957-.465H78v74h44.18c1.605 0 3.115-.37 4.496-1 3.719-1.695 6.324-5.41 6.324-9.731v-52.53c0-4.895-3.339-8.987-7.863-10.274"/><path fill="#FFF" d="M94.277 60h-2.634l3.081 9.626.897 2.842 1.54 4.865-10.49.715-3.93-3.938a.9.9 0 0 0-.645-.275H81l2.242 7.218-2.238 7.112h1.04c.25 0 .453-.112.645-.273l3.931-3.938 10.491.711-1.588 4.92-.897 2.844L91.594 102h2.635c.495 0 .992-.216 1.29-.654l12.285-15.968 13.473-1.369c.396-.055.797-.218 1.096-.548l.99-.986c.85-.817.85-2.239 0-3.058l-.992-.99c-.297-.326-.698-.489-1.094-.542l-13.476-1.369L95.57 60.658c-.35-.438-.797-.658-1.291-.658z"/><path fill="#A4D7EF" d="M68.501 77C66.014 77 64 78.791 64 80.999 64 83.209 66.014 85 68.501 85 70.986 85 73 83.209 73 80.999 73 78.791 70.986 77 68.501 77m-16.003 0C50.015 77 48 78.791 48 80.999 48 83.209 50.015 85 52.498 85 54.985 85 57 83.209 57 80.999 57 78.791 54.985 77 52.498 77m-14.999 0C35.014 77 33 78.791 33 80.999 33 83.209 35.014 85 37.499 85 39.986 85 42 83.209 42 80.999 42 78.791 39.986 77 37.499 77M156 77.606c0-3.222-.199-6.393-.573-9.51L129.042 46a10.7 10.7 0 0 1 3.152 7.59v52.886c0 4.35-2.584 8.09-6.27 9.8-1.37.633-2.867 1.006-4.46 1.006H33.857c-1.36 0-2.657-.262-3.852-.73l-.004.002L80.727 156C122.534 154.59 156 120.033 156 77.606"/><path fill="#B6B8DC" d="M156 77.606c0-3.222-.199-6.393-.573-9.51L129.042 46a10.7 10.7 0 0 1 3.152 7.59v52.886c0 4.35-2.584 8.09-6.27 9.8-1.37.633-2.867 1.006-4.46 1.006H33.857c-1.36 0-2.657-.262-3.852-.73l-.004.002L80.727 156C122.534 154.59 156 120.033 156 77.606"/></g></svg>