<svg xmlns="http://www.w3.org/2000/svg" width="157" height="156" viewBox="0 0 157 156"><g fill="none" fill-rule="evenodd"><path fill="#0033A0" d="M156 78c0-43.078-34.922-78-78-78S0 34.922 0 78s34.922 78 78 78 78-34.922 78-78"/><path fill="#024" d="M118.387 36 39 115.56 82.036 156C123.726 154.284 157 119.949 157 77.822c0-3.95-.3-7.834-.865-11.627z"/><path fill="#D0D8F2" d="m82.175 91.888 14.66 28.014 6.3 4.159-5.105-31.517c.01-.006-.205-1.283-.196-1.29 1.618-1.09 7.748-5.513 6.083-9.225-.842-2.724-5.678.996-7.585 2.423l-1.908-7.647.468-.385c7.375-6.051 28.442-27.767 23.312-36.258.321-1.163.357-1.918-.17-3.197-1.28-.527-2.035-.491-3.197-.169-8.491-5.131-30.206 15.934-36.257 23.309l-.384.47s-12.066-3.021-12.074-3.01l-35.179-5.7 4.155 6.299 28.015 14.66 1.753 4.232c-5.724 7.138-11.455 14.31-17.218 21.354l-12.74-.173L30 99.723l12.3 5.212 2.626 2.061-5.692 8.77 8.771-5.691 2.062 2.627L55.278 125l1.486-4.906-.173-12.741c7.043-5.763 14.215-11.494 21.354-17.219z"/><path fill="#ECEEF0" d="M114.802 36.799c-8.485-5.147-30.191 15.982-36.243 23.378q-.19.233-.382.472l-9.093-2.461c1.428-1.913 4.329-6.377 1.228-6.98-2.744-.64-7.857 4.025-8.95 5.649-1.917-.299.007-.01 0 0l-30.421-4.944 4.155 6.315 28.002 14.704 1.753 4.243c-5.722 7.16-11.449 14.352-17.211 21.417l-12.736-.174L30 99.908l12.293 5.227 2.626 2.07L39.23 116 118 36.968c-1.28-.53-2.033-.491-3.198-.17"/><path fill="#8CAEDC" d="m115 42.365-.732-1.911-.163-.158-.497-.481-.165-.157-1.925-.658L105 40.773l4.495 3.853.077-.072-.069.08L113.51 49z"/><path fill="#A4D7EF" d="m113.748 39.87-.166-.168-1.958-.702L105 40.89l4.567 4.11.079-.076L114 40.125z"/></g></svg>