<svg xmlns="http://www.w3.org/2000/svg" width="156" height="156" viewBox="0 0 156 156"><g fill="none" fill-rule="evenodd"><path fill="#D8D9EB" d="M156 78c0-43.078-34.922-78-78-78S0 34.922 0 78s34.922 78 78 78 78-34.922 78-78"/><path fill="#B6B8DC" d="M106.435 22 50 134.393l28.109 21.6c.08 0 .16.007.24.007C121.236 156 156 121.16 156 78.179a78 78 0 0 0-2.633-20.112z"/><path fill="#475059" d="M109 128.608c0 5.199-4.289 9.392-9.546 9.392h-41.87c-5.257 0-9.584-4.193-9.584-9.392V28.415c0-5.2 4.327-9.415 9.584-9.415h41.87c5.257 0 9.546 4.214 9.546 9.415z"/><path fill="#353F47" d="M99.443 19H79v119h20.443c5.26 0 9.557-4.195 9.557-9.394V28.416c0-5.202-4.296-9.416-9.557-9.416"/><path fill="#ECEEF0" d="M107 119.471a.53.53 0 0 1-.533.529H50.533a.53.53 0 0 1-.533-.529V35.53c0-.29.239-.529.533-.529h55.934c.296 0 .533.239.533.529z"/><path fill="#024" d="M107 36.533V48H50V36.492c0-.27.228-.492.51-.492h55.938c.307 0 .552.239.552.533"/><path fill="#000" d="M88 27c0 .346-.303.624-.675.624h-18.65c-.372 0-.675-.278-.675-.624 0-.344.303-.624.675-.624h18.65c.372 0 .675.28.675.624m-3 102c0 1.101-2.925 2-6.5 2-3.573 0-6.5-.899-6.5-2s2.927-2 6.5-2c3.575 0 6.5.899 6.5 2"/><path fill="#0033A0" d="M92.878 109.582h3.813V98.747h-3.813zm-2.937 0h1.797V98.747h-1.797zm-3.115 0h1.833V98.747h-1.833zm-5.284 0h2.863V98.747h-2.863zm-2.53 0h.92V98.747h-.92zm-1.575 0h.88V98.747h-.88zm-1.688 0h.92V98.747h-.92zm-5.318 0h2.863V98.747H70.43zm-3.555 0h2.53V98.747h-2.53zm1.892-42.671-1.37 1.203 8.716 6.442-5.81 5.094-4.22-.017-1.393 1.22 5.859 2.053 1.227 6.109 1.394-1.22.507-3.967 5.955-5.218 5.197 9.577 1.37-1.201-2.598-11.854 9.026-7.91c.945-.83.951-2.4-.036-3.542-.964-1.11-2.54-1.342-3.485-.516l-9.026 7.912zm-4.867 42.671h.92V98.747h-.92zm-3.592 0h2.859V98.747h-2.859zM103 113.427c0 .882-.81 1.573-1.835 1.573h-45.33c-1.026 0-1.835-.691-1.835-1.573V53.575c0-.85.81-1.575 1.835-1.575h45.33c1.026 0 1.835.725 1.835 1.575z"/><path fill="#FFF" d="M93.068 43.806q.064-.174.114-.366a3.3 3.3 0 0 0 .062-1.246c-.016.22-.054.412-.054.412l.032.108a4 4 0 0 1-.126.66c-.03-.108-.07-.208-.07-.216-.08.206-.196.452-.302.648zm-1.43.194h.2c.566-.835.592-1.575.592-1.717 0-.268-.044-.516-.118-.71 0 0-.118-.303-.3-.573.018.06.058.184.08.294l.002.018c.036.06.198.346.22.66v.001s-.116-.16-.2-.263a2.6 2.6 0 0 1-.062.515s.17.196.246.324c0 0-.05.276-.162.542a4 4 0 0 0-.258-.322 4.5 4.5 0 0 1-.308.61s.214.251.262.325a5 5 0 0 1-.194.296"/><path fill="#FFF" d="M90.934 44c.374-.43.694-.936.882-1.48.167-.469.257-1.043.11-1.553a1 1 0 0 0-.034-.102 1.2 1.2 0 0 0-.173-.322 3.4 3.4 0 0 0-.602-.543c.032.041.061.088.087.131 0 0 .269.207.428.416a2.4 2.4 0 0 0-.33-.213v-.002c.075.195.097.354.097.354s.239.13.453.32c.03.142.042.29.04.433-.217-.197-.467-.349-.467-.349a3 3 0 0 1-.062.496s.237.156.467.373c0 0-.065.305-.173.547-.22-.213-.435-.377-.453-.391 0 0-.111.297-.288.592.223.199.43.404.43.404-.126.205-.273.4-.426.582l-.395-.408q-.243.31-.525.578l.121.137z"/><path fill="#FFF" d="M90.75 40.625a1 1 0 0 0-.165-.201c-.307-.284-.874-.424-.874-.424.054.034.099.07.099.07.004 0 .232.07.435.193 0 0-.184-.052-.303-.07q.074.075.137.174s.376.084.54.195c0 0 .079.097.144.272-.258-.13-.55-.195-.55-.195q.057.16.084.337s.321.096.563.238q.028.21.022.429a4 4 0 0 0-.567-.284 2.6 2.6 0 0 1-.06.465s.39.213.564.342a4 4 0 0 1-.158.55c-.264-.213-.546-.398-.546-.398-.071.206-.246.546-.246.546.004.002.296.247.517.46q-.166.306-.372.586l-.472-.516q-.195.275-.429.53l.41.566c-.267.27-.53.471-.53.471l-.346-.593s-.242.224-.647.458V45h1.338c1.494-1.38 2.025-3.35 1.412-4.375"/><path fill="#FFF" d="M90.726 40.444c-.508-.527-1.304-.45-1.538-.426a6 6 0 0 0-.46.072c.058.004.14.012.195.022.043-.008.407-.072.674-.045a3.5 3.5 0 0 0-.49.086c.01.002.086.017.188.064a4.4 4.4 0 0 1 .735-.086s.124.043.249.11a5 5 0 0 0-.824.066.8.8 0 0 1 .15.129c.488-.057.91-.033.91-.033s.056.054.082.082a1 1 0 0 1 .091.123c-.498-.045-.974-.014-.974-.014q.046.097.066.209c.054 0 .478.002 1.015.076q.027.141.005.302a9 9 0 0 0-1.012-.14c-.01.094-.036.187-.069.287.054.01.649.119.982.222q-.008.025-.02.05-.07.163-.178.331c-.267-.103-.926-.3-.926-.3a3 3 0 0 1-.242.341s.565.248.837.384q-.19.21-.425.405c-.196-.137-.689-.43-.727-.453-.158.146-.359.298-.42.345l.593.52-.015.011c-.13.082-.267.158-.384.22-.102.053-.186.094-.214.108a52 52 0 0 1-.453-.558l-.127.07V44q.102-.035.209-.08c.333-.125.658-.285.958-.47q.293-.18.596-.416.36-.284.615-.584c.654-.74.83-1.509.348-2.006"/><path fill="#FFF" d="M89.466 40.284c-.19-.242-.506-.324-.874-.266l-.03.004-.086.02a.6.6 0 0 0-.118.038v.122c.036-.034.072-.06.112-.091q.109-.027.212-.034c-.106.07-.228.16-.324.244v.093l.002.002s.27-.237.484-.339q.08.008.15.025c-.32.15-.558.337-.572.35.03.022.062.05.066.053.004-.002.314-.22.656-.348a1 1 0 0 1 .128.084c-.37.118-.728.326-.728.326q.03.04.052.082l.006-.002c.382-.18.786-.273.786-.273a.6.6 0 0 1 .078.16s-.364.049-.83.213c.022.07.028.126.028.126s.438-.109.844-.122q.008.11-.004.237c-.242-.013-.814.02-.836.022 0 0-.002.091-.024.178 0 0 .418.015.798.093a2 2 0 0 1-.11.299c-.254-.084-.64-.189-.74-.215a2 2 0 0 1-.1.217s.47.226.65.337h.002c-.08.13-.234.312-.234.312l-.13-.104-.422-.326V41.8v.432l.244.315a3 3 0 0 1-.244.195V43l.008-.007q.17-.125.33-.281c.842-.813 1.186-1.899.77-2.428m-1.556 1.152c.213-.306.245-.658.055-.83a.3.3 0 0 0-.056-.042z"/><path fill="#FFF" d="M89.331 39.766c2.163 0 3.923 1.767 3.923 3.94 0 .44-.075.877-.218 1.294H94v-6h-6v1.002l.005-.002a3.9 3.9 0 0 1 1.326-.234m-3.705.647a1.26 1.26 0 0 0-.49-.304 2.1 2.1 0 0 0-.72-.109H83v3h1.417q.757 0 1.168-.372.416-.378.415-1.127 0-.338-.09-.615a1.2 1.2 0 0 0-.284-.473m-.472 1.465a.55.55 0 0 1-.143.243.6.6 0 0 1-.253.132q-.157.038-.377.038h-.618V40.71h.618c.15 0 .28.015.381.043q.158.045.253.14.096.096.14.246.04.15.04.363 0 .223-.041.377m-5.252-.111h1.696v-.588h-1.696v-.498h2.013L81.901 40H79v3h2.984l.016-.675h-2.098zM75.024 40l-.024.709h1.087V43h.829v-2.291H78L77.981 40zm-2.415 3h.782v-3h-.782zm-2.316-1.509.008.323-.008.006-.203-.231L68.642 40H68v3h.707v-1.575l-.008-.325.012-.005.203.23L70.492 43H71v-3h-.707zm-4.064.166q0 .333-.172.496-.17.16-.547.162-.379-.002-.56-.162-.175-.164-.177-.496V40H64v1.648q0 .682.388 1.016.39.337 1.122.336.734 0 1.112-.334.376-.334.378-1.018V40h-.771z"/></g></svg>